<?xml version="1.0" encoding="utf-8"?>
<!-- Generator: Adobe Illustrator 19.0.0, SVG Export Plug-In . SVG Version: 6.00 Build 0)  -->
<svg version="1.1" id="图层_1" xmlns="http://www.w3.org/2000/svg" xmlns:xlink="http://www.w3.org/1999/xlink" x="0px" y="0px"
	 viewBox="0 0 66 66" style="enable-background:new 0 0 66 66;" xml:space="preserve">
<style type="text/css">
	.st0{fill:none;stroke:#898989;stroke-miterlimit:10;}
	.st1{fill:#898989;}
</style>
<circle id="XMLID_210_" class="st0" cx="33" cy="33" r="31"/>
<path id="XMLID_207_" class="st0" d="M13.6,40.7"/>
<g id="XMLID_184_">
	<g id="XMLID_67_">
		<path id="XMLID_74_" class="st1" d="M19.1,36.3c3.5-3.1,5.3-5.4,5.3-7.3c0-1.3-0.7-2.2-2-2.2c-0.9,0-1.7,0.6-2.3,1.3l-1-1
			c1-1.1,2.1-1.8,3.6-1.8c2.2,0,3.6,1.4,3.6,3.5c0,2.3-1.8,4.6-4.3,7c0.6-0.1,1.3-0.1,1.9-0.1h2.9v1.6h-7.6V36.3z"/>
		<path id="XMLID_72_" class="st1" d="M28.2,36.3c3.5-3.1,5.3-5.4,5.3-7.3c0-1.3-0.7-2.2-2-2.2c-0.9,0-1.7,0.6-2.3,1.3l-1-1
			c1-1.1,2.1-1.8,3.6-1.8c2.2,0,3.6,1.4,3.6,3.5c0,2.3-1.8,4.6-4.3,7c0.6-0.1,1.3-0.1,1.9-0.1h2.9v1.6h-7.6V36.3z"/>
		<path id="XMLID_68_" class="st1" d="M38.7,39c0-0.7,0.5-1.4,1.3-1.9V37c-0.4-0.3-0.8-0.7-0.8-1.5c0-0.7,0.5-1.3,1-1.6v-0.1
			c-0.6-0.5-1.2-1.3-1.2-2.3c0-2,1.6-3.2,3.4-3.2c0.5,0,0.9,0.1,1.3,0.2h3.1V30h-1.7c0.3,0.4,0.6,0.9,0.6,1.6c0,1.9-1.5,3-3.3,3
			c-0.4,0-0.8-0.1-1.2-0.3c-0.3,0.3-0.5,0.5-0.5,0.9c0,0.5,0.4,0.9,1.5,0.9h1.6c2.1,0,3.2,0.6,3.2,2.1c0,1.7-1.8,3.1-4.6,3.1
			C40.3,41.4,38.7,40.6,38.7,39z M45.2,38.6c0-0.7-0.6-1-1.6-1h-1.3c-0.4,0-0.8,0-1.2-0.1c-0.5,0.4-0.8,0.8-0.8,1.3
			c0,0.9,0.9,1.4,2.4,1.4C44.2,40.1,45.2,39.4,45.2,38.6z M44.1,31.5c0-1.2-0.7-1.9-1.7-1.9s-1.7,0.7-1.7,1.9c0,1.2,0.8,1.9,1.7,1.9
			C43.4,33.4,44.1,32.7,44.1,31.5z"/>
	</g>
</g>
</svg>
