<?xml version="1.0" encoding="utf-8"?>
<!-- Generator: Adobe Illustrator 19.0.0, SVG Export Plug-In . SVG Version: 6.00 Build 0)  -->
<svg version="1.1" id="图层_1" xmlns="http://www.w3.org/2000/svg" xmlns:xlink="http://www.w3.org/1999/xlink" x="0px" y="0px"
	 viewBox="0 0 64 64" style="enable-background:new 0 0 64 64;" xml:space="preserve">
<style type="text/css">
	.st0{fill:none;stroke:#888888;stroke-miterlimit:10;}
	.st1{fill:#888888;}
	.st2{fill:none;}
</style>
<g id="XMLID_27_">
	<circle id="XMLID_98_" class="st0" cx="32" cy="32" r="31"/>
	<path id="XMLID_93_" class="st1" d="M51.5,27.4L31.8,18l-19.3,9.6l8.7,4.3v10.1l0.4,0.3c0.2,0.1,4.5,3.4,10.3,3.5
		c0.1,0,0.2,0,0.4,0c5.7,0,9.4-3.3,9.5-3.5l0.4-0.3V32L51.5,27.4z M31.8,20.5l14.6,7l-14.6,7.3l-14.4-7.1L31.8,20.5z M40,41.1
		c-1,0.8-4,2.7-8,2.6c-4.1-0.1-7.4-2-8.6-2.8V33l8.4,4.2l8.2-4.1V41.1z M40,41.1"/>
	<rect id="XMLID_92_" x="12.5" y="18" class="st2" width="39.1" height="28"/>
	<rect id="XMLID_29_" x="13.9" y="33.4" class="st1" width="2.2" height="8.4"/>
	<path id="XMLID_28_" class="st1" d="M29.9,24.9c0.2-0.2,0.5-0.2,0.7,0l4.2,2.7c0.2,0.2,0.2,0.5,0,0.7l-4.2,2.7
		c-0.2,0.2-0.5,0.2-0.7,0"/>
</g>
</svg>
