<?xml version="1.0" encoding="utf-8"?>
<!-- Generator: Adobe Illustrator 19.0.0, SVG Export Plug-In . SVG Version: 6.00 Build 0)  -->
<svg version="1.1" id="图层_1" xmlns="http://www.w3.org/2000/svg" xmlns:xlink="http://www.w3.org/1999/xlink" x="0px" y="0px"
	 viewBox="0 0 64 64" style="enable-background:new 0 0 64 64;" xml:space="preserve">
<style type="text/css">
	.st0{fill:none;stroke:#888888;stroke-miterlimit:10;}
	.st1{fill:#888888;}
	.st2{fill:none;}
</style>
<circle id="XMLID_124_" class="st0" cx="32" cy="32" r="31"/>
<g id="XMLID_53_">
	<path id="XMLID_63_" class="st1" d="M37.5,48.5c-1.3,0-1.9-1.7-2.1-2.3c-0.9-2.6-1.7-4.4-2.4-5.7c-0.7-1.2-1.1-1.5-1.2-1.6
		c-0.1,0.1-0.5,0.6-0.9,2.2c-0.3,1.4-0.7,3.3-1,5.5l0,0.2l-0.2,0.2c-0.7,0.7-1.8,1.5-3,1.1c-0.8-0.3-1.5-1-2.2-2.2
		c-0.5-0.9-1-2.1-1.4-3.6c-0.7-2.5-1.2-5.4-1.5-7.4c-1.5-0.9-2.7-2.2-3.6-3.7c-1-1.7-1.5-3.6-1.5-5.5c0-2.9,1.1-5.6,3.1-7.6
		s4.7-3.1,7.6-3.1c1.6,0,3.1,0.3,4.5,1c1.4-0.7,2.9-1,4.5-1c2.9,0,5.6,1.1,7.6,3.1c2,2,3.1,4.7,3.1,7.6c0,3.1-1.3,6-3.7,8.1
		c-0.2,0.9-0.7,3.9-1.5,6.8c-0.6,2.1-1.1,3.8-1.6,5c-0.8,1.9-1.6,2.7-2.5,2.8C37.6,48.5,37.5,48.5,37.5,48.5L37.5,48.5z M31.8,37.3
		c1,0,1.8,1.1,2.4,2.1c0.8,1.3,1.6,3.4,2.7,6.2c0.3,0.9,0.6,1.1,0.7,1.2c0.1-0.1,0.6-0.4,1.2-2.1c0.5-1.2,1-2.8,1.5-4.8
		c0.9-3.4,1.5-6.8,1.5-6.8l0.1-0.3l0.2-0.2c2.1-1.7,3.3-4.3,3.3-7.1c0-2.4-1-4.7-2.7-6.5c-1.7-1.7-4-2.7-6.5-2.7
		c-1.5,0-2.9,0.3-4.2,1l-0.4,0.2l-0.4-0.2c-1.3-0.7-2.7-1-4.2-1c-2.4,0-4.7,1-6.5,2.7c-1.7,1.7-2.7,4-2.7,6.5c0,1.7,0.4,3.3,1.3,4.7
		c0.8,1.4,2,2.5,3.4,3.3l0.3,0.2l0.1,0.4c0.3,2.1,0.8,5,1.5,7.6c0.4,1.4,0.8,2.5,1.3,3.3c0.6,1,1,1.3,1.3,1.4
		c0.3,0.1,0.8-0.1,1.2-0.5c0.4-2.3,0.7-4.3,1.1-5.7c0.4-1.5,0.9-3,2.1-3.1C31.7,37.3,31.7,37.3,31.8,37.3L31.8,37.3z M31.8,37.3"/>
	<rect id="XMLID_62_" x="18" y="16.6" class="st2" width="28.1" height="30.9"/>
	<circle id="XMLID_61_" class="st1" cx="32.1" cy="29.1" r="1.3"/>
	<rect id="XMLID_60_" x="24.1" y="28.6" class="st1" width="16" height="1"/>
</g>
</svg>
