<?xml version="1.0" encoding="utf-8"?>
<!-- Generator: Adobe Illustrator 19.0.0, SVG Export Plug-In . SVG Version: 6.00 Build 0)  -->
<svg version="1.1" id="图层_1" xmlns="http://www.w3.org/2000/svg" xmlns:xlink="http://www.w3.org/1999/xlink" x="0px" y="0px"
	 viewBox="0 0 64 64" style="enable-background:new 0 0 64 64;" xml:space="preserve">
<style type="text/css">
	.st0{fill:none;stroke:#888888;stroke-miterlimit:10;}
	.st1{fill:#888888;}
	.st2{fill:none;}
</style>
<circle id="XMLID_45_" class="st0" cx="32" cy="32" r="31"/>
<path id="XMLID_28_" class="st1" d="M22.4,48.8h-0.9l-0.2-0.3c-0.1-0.2-0.2-0.2-0.3-0.4c-0.2-0.3-0.5-0.6-0.8-1.1
	c-1-1.7-1.6-3.7-2.2-6.2c-0.2-1-0.3-2-0.4-3.1c-0.1-1.1-0.1-2.2-0.2-3.3c0-0.5,0-1-0.1-1.5c-0.5,0.2-0.9,0.5-1.2,0.8
	c-0.6,0.6-1.3,1.3-1.9,2c-0.3,0.3-0.6,0.7-0.9,1c-0.2,0.2-0.4,0.4-0.7,0.5c-0.2,0.2-0.8,0.3-1.3,0.1c-0.3-0.2-0.5-0.7-0.5-1.1
	c-0.1-1,0.2-1.9,0.5-2.7l0.1-0.2c0.7-1.7,1.8-3.1,2.7-4.2c1.3-1.6,2.9-2.7,4.7-3.5c1-0.5,2.1-0.8,3.2-0.9c0.7-0.1,1.4-0.2,2.1-0.1
	c-0.9-0.2-1.6-0.7-2.3-1.3c-1-0.9-1.5-2.1-1.4-3.4c-0.1-2,1.3-4,3.3-4.6c1.5-0.4,2.9-0.2,4.2,0.6c1.1,0.7,1.9,1.9,2,3.2
	c0.2,1.7-0.3,3.2-1.4,4.5c-0.6,0.7-1.6,1.2-2.6,1.2h-0.2l0.9,0.2c1.3,0.4,2.3,1,3.4,1.8c2.5,2,3.9,4.5,5,6.7
	c0.5,1.2,0.1,1.6-0.3,1.8c-0.5,0.3-1.3,0.2-1.7-0.1c-0.4-0.2-0.8-0.5-1.1-0.9l-0.3-0.3c-0.2-0.2-0.4-0.3-0.5-0.5
	c-0.3-0.3-0.6-0.5-1-0.8c-0.3-0.2-0.5-0.3-0.7-0.3c-0.2,0.1-0.3,0.2-0.5,0.6c-0.5,1.2-0.5,2.5-0.4,3.8c0.2,2.3,1.5,4.4,2.7,6.2
	l1.4,1.9l0.7,0.9c0.1,0.2,0.2,0.3,0.2,0.5c0.2,0.5,0.1,1-0.2,1.3c-0.3,0.3-0.8,0.5-1.3,0.3c-1-0.2-1.9-0.7-2.5-1.3
	c-0.7-0.6-1.3-1.3-2-1.9l-1.4-1.4c-0.6-0.6-1.3-1.1-2-1.3c-0.2-0.1-0.4-0.1-0.5,0c-0.1,0.1-0.2,0.2-0.2,0.3
	c-0.1,0.2-0.2,0.5-0.2,0.8c0,0.8,0,1.5,0.1,2.3v0.9c0.2,0.8,0,1.5-0.8,1.9L22.4,48.8z M17.6,31.2c0.2,0,0.3,0,0.4,0.1
	c0.4,0.2,0.6,0.5,0.8,0.9c0.1,0.2,0.1,0.5,0.1,0.7c0,0.5,0,1,0.1,1.6c0,1.1,0.1,2.2,0.2,3.2c0.1,0.9,0.2,2,0.4,2.9
	c0.5,2.3,1.1,4.2,2,5.7c0.1,0.2,0.2,0.3,0.3,0.4v-0.7c0-0.8-0.1-1.6-0.1-2.3c0-0.4,0.1-0.8,0.2-1.3c0.2-0.5,0.5-1,1-1.3
	c0.5-0.2,1.1-0.3,1.7-0.1c1.1,0.3,1.9,1,2.6,1.6c0.5,0.5,0.9,0.9,1.5,1.4c0.6,0.6,1.3,1.3,2,1.9c0.3,0.2,0.6,0.5,1,0.6
	c-0.1-0.2-0.2-0.3-0.3-0.4c-0.5-0.6-0.9-1.3-1.4-2c-1.3-2-2.7-4.2-3-6.9c-0.2-1.5-0.2-3.1,0.5-4.6c0.4-0.8,0.9-1.3,1.5-1.4
	c0.6-0.2,1.3,0,2,0.5c0.4,0.3,0.8,0.6,1.1,0.9l0.5,0.5c0.2,0.1,0.2,0.2,0.4,0.3c0.1,0.1,0.2,0.2,0.3,0.3c-0.9-2-2.2-4-4.2-5.6
	c-0.9-0.7-1.9-1.3-3-1.6c-1.2-0.4-2.4-0.5-3.8-0.3c-0.9,0.2-1.9,0.4-2.7,0.8c-1.6,0.7-3,1.8-4.2,3.1c-0.8,0.9-1.8,2.2-2.4,3.7
	l-0.1,0.2c-0.2,0.4-0.4,0.9-0.5,1.3c0.2-0.3,0.5-0.5,0.8-0.9c0.6-0.7,1.3-1.4,2-2c0.5-0.5,1.1-0.8,1.6-1.1l0.2-0.2
	C17.2,31.3,17.4,31.2,17.6,31.2L17.6,31.2z M25.2,16.7c-0.3,0-0.6,0.1-0.9,0.2c-1.3,0.4-2.3,1.7-2.2,3.1c0,0.9,0.3,1.7,0.9,2.3
	c0.8,0.8,1.7,1.1,2.7,1.1c0.4,0,1-0.2,1.4-0.6c0.9-1,1.2-2.1,1.1-3.4c-0.1-0.9-0.5-1.6-1.3-2.1C26.5,16.9,25.8,16.7,25.2,16.7
	L25.2,16.7z M41.7,48.5c-0.5,0-0.9-0.2-1.3-0.7c-0.7-0.9-0.9-1.9-1.1-2.8c-0.2-1.1-0.2-2.1-0.2-3.2c0-0.8-0.2-0.9-0.9-1.3
	c-1.1-0.4-2-0.7-2.9-1.1c-0.5-0.2-1-0.5-1.4-0.9c-0.4-0.3-0.5-0.9-0.6-1.1c-0.1-0.4,0-0.7,0.2-1c0.2-0.3,0.5-0.5,0.9-0.4
	c0.7,0,1.5,0.1,2.2,0.1H38c0.2,0,0.5,0.1,0.8,0.1h2c-0.3-0.2-0.6-0.4-0.9-0.7c-1.2-1.2-1.3-2.5-0.6-4c0.5-1.1,1.4-2,2.7-2.3
	c1.2-0.4,2.5-0.2,3.5,0.5c1,0.8,1.6,2,1.6,3.3c0,1-0.3,2-1,2.7c0.5-0.2,1.1-0.3,1.6-0.5l3.3-1.4c0.4-0.2,1.3-0.6,2.1,0.3l0.2,0.2
	v1.2l-0.1,0.2c-0.6,1.1-1.6,1.7-2.5,2.4c-0.3,0.2-0.5,0.4-0.9,0.6c-1,0.8-1.3,1.6-1.2,2.6c0.1,0.4,0.2,0.9,0.3,1.3
	c0.1,0.5,0.2,0.9,0.3,1.4c0.2,1.1,0.4,2.2,0,3.4c-0.2,0.9-0.8,1-1.3,1c-0.9,0-1.1-0.6-1.3-0.9c-0.5-1-0.8-1.6-1.6-2
	c-0.5-0.2-0.9-0.2-1.3-0.1c-0.3,0.2-0.5,0.5-0.6,1c-0.1,0.2-0.1,0.4-0.1,0.5c0,0.3,0,1.2-0.9,1.5C42,48.5,41.9,48.5,41.7,48.5
	L41.7,48.5z M35.4,37.7c0.2,0.2,0.4,0.2,0.6,0.3c0.8,0.3,1.7,0.7,2.7,1c1.6,0.5,1.9,1.4,2,2.7c0,1,0,2,0.2,3
	c0.2,0.8,0.3,1.3,0.6,1.9c0-0.2,0-0.3,0.1-0.4c0.2-0.9,0.7-1.7,1.5-2.1c0.8-0.4,1.7-0.4,2.6,0c1,0.5,1.6,1.3,2,2.1
	c0-0.6-0.1-1.3-0.2-1.9c-0.1-0.5-0.2-0.9-0.3-1.3c-0.1-0.5-0.2-0.9-0.3-1.3c-0.3-1.6,0.2-3,1.7-4.2l0.9-0.7c0.7-0.5,1.3-0.9,1.8-1.6
	l-3.3,1.4c-2.3,0.9-4.9,1.4-7.7,1.3h-1.7c-0.3,0-0.5,0-0.9-0.1h-1.2C36.3,37.8,35.8,37.8,35.4,37.7L35.4,37.7z M42.9,30.6
	c-0.2,0-0.5,0-0.7,0.2c-0.8,0.3-1.4,0.8-1.7,1.6c-0.4,0.9-0.3,1.6,0.3,2.3c0.5,0.5,1.1,0.7,1.9,0.8c0.7,0.1,1.3-0.2,1.8-0.5
	c0.5-0.4,0.7-1,0.7-1.7c0.1-0.8-0.3-1.5-0.9-2C44,30.9,43.5,30.6,42.9,30.6L42.9,30.6z M42.9,30.6"/>
<rect id="XMLID_27_" x="10.8" y="13.5" class="st2" width="42.4" height="33.8"/>
</svg>
