<?xml version="1.0" encoding="utf-8"?>
<!-- Generator: Adobe Illustrator 19.0.0, SVG Export Plug-In . SVG Version: 6.00 Build 0)  -->
<svg version="1.1" id="图层_1" xmlns="http://www.w3.org/2000/svg" xmlns:xlink="http://www.w3.org/1999/xlink" x="0px" y="0px"
	 viewBox="0 0 64 64" style="enable-background:new 0 0 64 64;" xml:space="preserve">
<style type="text/css">
	.st0{fill:none;stroke:#888888;stroke-miterlimit:10;}
	.st1{fill:#888888;}
	.st2{fill:none;}
</style>
<circle id="XMLID_27_" class="st0" cx="32" cy="32" r="31"/>
<g id="XMLID_51_">
	<path id="XMLID_263_" class="st1" d="M23.5,45.3L23.5,45.3c1.3,0,2.5-0.5,3.5-1.4l6-6.6l7.1,7.1c0.6,0.6,1.4,0.9,2.2,0.9h0
		c0.8,0,1.6-0.3,2.2-0.9c0.6-0.6,0.9-1.4,0.9-2.2c0-0.8-0.3-1.6-0.9-2.2l-6.5-6.6l0.6,0c1.9-0.1,3.6-1,4.9-2.3c1.3-1.4,2-3.2,2-5
		c0-0.7-0.1-1.4-0.3-2c-0.1-0.2-0.2-0.4-0.4-0.4c-0.2-0.1-0.4,0-0.6,0.2l-1.5,1.5c-0.5,0.5-1.2,0.8-1.9,0.8c-0.7,0-1.4-0.3-1.9-0.8
		c-1.1-1.1-1.1-2.8,0-3.9l1.5-1.5c0.1-0.1,0.2-0.4,0.2-0.6c-0.1-0.2-0.2-0.4-0.4-0.4c-0.7-0.2-1.3-0.3-2-0.3c-2,0-3.8,0.8-5.2,2.2
		c-1.4,1.4-2.2,3.3-2.2,5.2c0,0.4,0,0.8,0.1,1.2l0,0.1l-1.3,1.2l-5.2-5.2l0.1-0.2c0.4-0.9,0.2-1.9-0.4-2.6L22,18.8
		c-0.1-0.1-0.3-0.2-0.4-0.2c-0.2,0-0.3,0.1-0.4,0.2l-2.4,2.4c-0.1,0.1-0.2,0.3-0.2,0.4c0,0.2,0.1,0.3,0.2,0.4l1.8,1.8
		c0.7,0.7,1.7,0.9,2.6,0.4l0.2-0.1l5.1,5.2l-8.5,7.8c-0.9,0.9-1.4,2.1-1.4,3.4c0,1.3,0.5,2.5,1.4,3.4C21,44.8,22.2,45.3,23.5,45.3
		L23.5,45.3z M23,23L23,23c-0.2,0.2-0.5,0.3-0.8,0.3c-0.3,0-0.6-0.1-0.8-0.3l0,0L20,21.6l1.6-1.6l1.4,1.4C23.5,21.8,23.5,22.6,23,23
		L23,23z M43.6,40.8c0.4,0.4,0.6,0.9,0.6,1.4c0,0.5-0.2,1-0.6,1.4l0,0c-0.4,0.4-0.9,0.6-1.4,0.6c-0.5,0-1-0.2-1.4-0.6l0,0L34,36.8
		l2.8-2.8L43.6,40.8z M20.9,37.9L20.9,37.9L31.7,28l0,0l0,0c0,0,0.1-0.1,0.1-0.1l0-0.1l0-0.1c0-0.1,0-0.1,0-0.2l0-0.1c0,0,0,0,0-0.1
		l0,0c-0.1-0.5-0.2-0.9-0.2-1.4c0-1.7,0.7-3.2,1.8-4.4c1.2-1.2,2.8-1.8,4.5-1.8l0.7,0l-0.7,0.7c-0.7,0.7-1.1,1.7-1.1,2.8
		c0,1,0.4,2,1.1,2.8c0.7,0.7,1.7,1.1,2.7,1.1c1,0,2-0.4,2.7-1.1l0.7-0.7V26c0,1.7-0.6,3.2-1.8,4.4c-1.2,1.2-2.7,1.8-4.4,1.8
		c-0.5,0-0.9-0.1-1.4-0.2l0,0c-0.1,0-0.1,0-0.2,0c0,0-0.1,0-0.1,0l-0.1,0c0,0,0,0,0,0l-0.1,0c0,0-0.1,0-0.1,0.1l0,0l0,0L25.6,43.5
		c-0.6,0.4-1.4,0.7-2.1,0.7h0c-1,0-1.9-0.4-2.6-1c-0.7-0.7-1.1-1.6-1.1-2.6C19.8,39.5,20.2,38.6,20.9,37.9L20.9,37.9z M20.9,37.9"/>
	<rect id="XMLID_262_" x="18.6" y="18.6" class="st2" width="26.7" height="26.8"/>
	<path id="XMLID_258_" class="st1" d="M23.5,39.1c-0.8,0-1.4,0.6-1.4,1.4c0,0.8,0.6,1.4,1.4,1.4c0.8,0,1.4-0.6,1.4-1.4
		C24.9,39.7,24.3,39.1,23.5,39.1L23.5,39.1z M23.5,39.1"/>
</g>
</svg>
