<?xml version="1.0" encoding="utf-8"?>
<!-- Generator: Adobe Illustrator 19.0.0, SVG Export Plug-In . SVG Version: 6.00 Build 0)  -->
<svg version="1.1" id="图层_1" xmlns="http://www.w3.org/2000/svg" xmlns:xlink="http://www.w3.org/1999/xlink" x="0px" y="0px"
	 viewBox="0 0 64 64" style="enable-background:new 0 0 64 64;" xml:space="preserve">
<style type="text/css">
	.st0{fill:none;stroke:#888888;stroke-miterlimit:10;}
	.st1{fill:#888888;}
</style>
<circle id="XMLID_133_" class="st0" cx="32" cy="32" r="31"/>
<g id="XMLID_27_">
	<path id="XMLID_28_" class="st1" d="M32,27.7c-1.5,0-14.9-0.1-14.9-4.3c0-4.2,13.4-4.3,14.9-4.3c1.5,0,14.9,0.1,14.9,4.3
		C46.9,27.6,33.5,27.7,32,27.7L32,27.7z M19.2,23.5c0.7,0.8,5.3,2.1,12.8,2.1c7.4,0,12-1.3,12.8-2.1c-0.7-0.8-5.3-2.1-12.8-2.1
		C24.6,21.3,20,22.7,19.2,23.5L19.2,23.5z M32,36.3c-1.5,0-14.9-0.1-14.9-4.3c0-0.6,0.5-1.1,1.1-1.1c0.6,0,1,0.4,1.1,1
		c0.5,0.8,5.2,2.2,12.8,2.2c7.6,0,12.3-1.4,12.8-2.2c0.1-0.5,0.5-1,1.1-1c0.6,0,1.1,0.5,1.1,1.1C46.9,36.2,33.5,36.3,32,36.3
		L32,36.3z M32,44.8c-1.5,0-14.9-0.1-14.9-4.3c0-0.6,0.5-1.1,1.1-1.1c0.6,0,1,0.4,1.1,1c0.5,0.8,5.2,2.2,12.8,2.2
		c7.6,0,12.3-1.4,12.8-2.2c0.1-0.5,0.5-1,1.1-1c0.6,0,1.1,0.5,1.1,1.1C46.9,44.7,33.5,44.8,32,44.8L32,44.8z M32,44.8"/>
</g>
</svg>
