<?xml version="1.0" encoding="utf-8"?>
<!-- Generator: Adobe Illustrator 19.0.0, SVG Export Plug-In . SVG Version: 6.00 Build 0)  -->
<svg version="1.1" id="图层_1" xmlns="http://www.w3.org/2000/svg" xmlns:xlink="http://www.w3.org/1999/xlink" x="0px" y="0px"
	 viewBox="0 0 64 64" style="enable-background:new 0 0 64 64;" xml:space="preserve">
<style type="text/css">
	.st0{fill:none;stroke:#888888;stroke-miterlimit:10;}
	.st1{fill:none;stroke:#888888;stroke-width:2;stroke-miterlimit:10;}
	.st2{fill:#888888;}
</style>
<circle id="XMLID_91_" class="st0" cx="32" cy="32" r="31"/>
<g id="XMLID_27_">
	<path id="XMLID_37_" class="st1" d="M46.3,28.7H33.4c-0.4,0-0.7-0.3-0.7-0.7v-9.3c0-0.4,0.3-0.7,0.7-0.7h12.9
		c0.4,0,0.7,0.3,0.7,0.7V28C47,28.3,46.7,28.7,46.3,28.7z"/>
	<path id="XMLID_34_" class="st2" d="M16.7,25.7c0-6.3,5.2-11.4,11.7-11.4h0v3.2h0c-4.7,0-8.4,3.7-8.4,8.2v0.1h4L18.5,31L13,25.7
		L16.7,25.7C16.7,25.7,16.7,25.7,16.7,25.7L16.7,25.7z M16.7,25.7"/>
	<path id="XMLID_31_" class="st2" d="M47.3,38.3c0,6.3-5.2,11.4-11.7,11.4c0,0,0,0,0,0v-3.2c0,0,0,0,0,0c4.7,0,8.4-3.7,8.4-8.2v-0.1
		h-4l5.5-5.3l5.5,5.3L47.3,38.3C47.3,38.3,47.3,38.3,47.3,38.3L47.3,38.3z M47.3,38.3"/>
	<g id="XMLID_28_">
		<circle id="XMLID_30_" class="st1" cx="23.6" cy="38.2" r="4"/>
		<path id="XMLID_29_" class="st1" d="M16.7,48.5c0-3.1,3.1-5.6,6.9-5.6s6.9,2.5,6.9,5.6"/>
	</g>
</g>
</svg>
