<?xml version="1.0" encoding="utf-8"?>
<!-- Generator: Adobe Illustrator 19.0.0, SVG Export Plug-In . SVG Version: 6.00 Build 0)  -->
<svg version="1.1" id="图层_1" xmlns="http://www.w3.org/2000/svg" xmlns:xlink="http://www.w3.org/1999/xlink" x="0px" y="0px"
	 viewBox="0 0 64 64" style="enable-background:new 0 0 64 64;" xml:space="preserve">
<style type="text/css">
	.st0{fill:#888888;}
	.st1{fill:none;stroke:#888888;stroke-miterlimit:10;}
	.st2{fill:none;stroke:#898989;stroke-miterlimit:10;}
</style>
<g id="XMLID_71_">
	<rect id="XMLID_85_" x="14.7" y="16" class="st0" width="2" height="32"/>
	<rect id="XMLID_82_" x="15.7" y="46" class="st0" width="38" height="2"/>
	<circle id="XMLID_79_" class="st1" cx="32" cy="32" r="31"/>
	<rect id="XMLID_78_" x="20.9" y="32" class="st0" width="4.6" height="15.4"/>
	<rect id="XMLID_77_" x="28.2" y="28.5" class="st0" width="4.6" height="18.9"/>
	<rect id="XMLID_76_" x="35.5" y="26.2" class="st0" width="4.6" height="21.2"/>
	<rect id="XMLID_75_" x="42.8" y="22.5" class="st0" width="4.6" height="24.9"/>
	<polyline id="XMLID_74_" class="st2" points="20.9,30.5 25.5,30.5 25.5,25.4 32.8,25.4 32.8,22.8 40.1,22.8 40.1,18.7 47.4,18.7 	
		"/>
	
		<rect id="XMLID_73_" x="46.1" y="16.2" transform="matrix(-0.7071 0.7071 -0.7071 -0.7071 92.0837 -2.5055)" class="st0" width="1" height="3.2"/>
	
		<rect id="XMLID_72_" x="45.9" y="17.9" transform="matrix(0.7071 0.7071 -0.7071 0.7071 27.3997 -27.1248)" class="st0" width="1" height="3.2"/>
</g>
</svg>
