<?xml version="1.0" encoding="utf-8"?>
<!-- Generator: Adobe Illustrator 19.0.0, SVG Export Plug-In . SVG Version: 6.00 Build 0)  -->
<svg version="1.1" id="图层_1" xmlns="http://www.w3.org/2000/svg" xmlns:xlink="http://www.w3.org/1999/xlink" x="0px" y="0px"
	 viewBox="0 0 64 64" style="enable-background:new 0 0 64 64;" xml:space="preserve">
<style type="text/css">
	.st0{fill:none;stroke:#888888;stroke-miterlimit:10;}
	.st1{fill:#888888;}
</style>
<circle id="XMLID_177_" class="st0" cx="32" cy="32" r="31"/>
<path id="XMLID_174_" class="st0" d="M24.2,43.9"/>
<path id="XMLID_158_" class="st1" d="M19.1,45.3c0,0.7,0.2,0.9,0.9,0.9h10.7V32H19.1V45.3z M33.3,46.2H44c0.7,0,0.9-0.2,0.9-0.9V32
	H33.3V46.2z M44.9,24.2h-6.5c1.6-0.4,3.2-1.5,3.4-2.9c0.2-1.5-1.6-3.9-3.8-3.6c-2.6,0.4-4.6,2.7-6,4.5c-1.4-1.8-3.1-3.9-5.7-4.5
	c-2.5-0.6-4.1,2-4.1,3.5c0,1.3,1.6,2.5,3.2,2.8h-6.5c-0.8,0-1.3,0.4-1.3,1.3v5.2h12.9v-6.5h2.6v6.5h12.9v-5.2
	C46.2,24.7,45.7,24.2,44.9,24.2L44.9,24.2z M24.1,21.9c-0.4-0.5-0.1-1.2,0.1-1.7c0.5-0.9,1.2-1.4,2.5-0.9c1.7,0.7,3,2.2,4,3.6
	C28.5,23.1,25.3,23.2,24.1,21.9L24.1,21.9z M33.5,22.8c1.1-1.4,2.3-2.7,4-3.6c1.8-0.9,3.4,1.5,2.6,2.6c-0.7,0.9-2.7,0.9-3.8,1
	C35.4,22.9,34.5,22.9,33.5,22.8L33.5,22.8z M33.5,22.8"/>
</svg>
