<?xml version="1.0" encoding="utf-8"?>
<!-- Generator: Adobe Illustrator 19.0.0, SVG Export Plug-In . SVG Version: 6.00 Build 0)  -->
<svg version="1.1" id="图层_1" xmlns="http://www.w3.org/2000/svg" xmlns:xlink="http://www.w3.org/1999/xlink" x="0px" y="0px"
	 viewBox="0 0 64 64" style="enable-background:new 0 0 64 64;" xml:space="preserve">
<style type="text/css">
	.st0{fill:none;stroke:#888888;stroke-miterlimit:10;}
	.st1{fill:#888888;}
</style>
<circle id="XMLID_154_" class="st0" cx="32" cy="32" r="31"/>
<path id="XMLID_149_" class="st0" d="M24.2,43.9"/>
<g id="XMLID_136_">
	<g id="XMLID_72_">
		<path id="XMLID_73_" class="st1" d="M42.1,37.3c-2.4,0-4.3,1.6-4.9,3.9H22.7c-2.2,0-3.9-1.8-3.9-3.9s1.8-3.9,3.9-3.9h18.7
			c3.2,0,5.9-2.6,5.9-5.9c0-3.2-2.6-5.9-5.9-5.9H26.5c-0.4-2.4-2.4-4.5-4.9-4.5c-2.8,0-4.9,2.2-4.9,4.9c0,2.6,2.2,4.9,4.9,4.9
			c2.2,0,4.1-1.4,4.7-3.4h15c2.2,0,3.9,1.8,3.9,3.9s-1.8,3.9-3.9,3.9H22.7c-3.2,0-5.9,2.6-5.9,5.9c0,3.2,2.6,5.9,5.9,5.9h14.8
			c0.4,2.2,2.4,3.9,4.9,3.9c2.6,0,4.9-2.2,4.9-4.9C47.2,39.3,45,37.3,42.1,37.3L42.1,37.3z M21.7,25.1c-1.6,0-2.8-1.4-2.8-3
			c0-1.6,1.2-2.8,2.8-2.8c1.6,0,2.8,1.4,2.8,2.8C24.5,23.7,23.3,25.1,21.7,25.1L21.7,25.1z M42.1,45.2c-1.6,0-2.8-1.2-2.8-2.8
			c0-1.6,1.2-2.8,2.8-2.8s2.8,1.2,2.8,2.8C45,44,43.8,45.2,42.1,45.2L42.1,45.2z M42.1,45.2"/>
	</g>
</g>
</svg>
