<?xml version="1.0" encoding="utf-8"?>
<!-- Generator: Adobe Illustrator 19.0.0, SVG Export Plug-In . SVG Version: 6.00 Build 0)  -->
<svg version="1.1" id="图层_1" xmlns="http://www.w3.org/2000/svg" xmlns:xlink="http://www.w3.org/1999/xlink" x="0px" y="0px"
	 viewBox="0 0 64 64" style="enable-background:new 0 0 64 64;" xml:space="preserve">
<style type="text/css">
	.st0{fill:none;stroke:#888888;stroke-miterlimit:10;}
	.st1{fill:#888888;}
</style>
<circle id="XMLID_235_" class="st0" cx="31.9" cy="32" r="31"/>
<g id="XMLID_152_">
	<path id="XMLID_232_" class="st0" d="M24.1,45.5"/>
	<path id="XMLID_222_" class="st1" d="M29.8,47.5c-0.3,0-0.6,0-0.9,0c-5.7-0.5-9.5-5.3-9.2-11.3c0.7-11.9,11-18.5,11.5-18.8
		c0.6-0.3,1.3-0.3,1.8,0.1c0.5,0.4,0.7,1.1,0.6,1.7l-0.1,0.4c-0.3,1.3-0.5,3.7,0.8,7.1c0.6,1.7,2.2,4.1,3.7,6.2
		c0,0.1,0.1,0.1,0.1,0.2c1.2,1.8,1.7,3.9,1.5,6C38.9,43.9,34.8,47.5,29.8,47.5L29.8,47.5z M31.7,19c-1.7,1.1-9.8,7.1-10.4,17.2
		c-0.3,5.1,2.9,9.1,7.7,9.5c4.5,0.4,8.3-2.7,8.7-6.9c0.2-1.7-0.3-3.5-1.2-4.9l-0.1-0.1c-1.6-2.3-3.2-4.7-3.9-6.6
		C31.1,23.4,31.3,20.7,31.7,19L31.7,19z M31.7,19"/>
	<path id="XMLID_157_" class="st1" d="M28.1,41.4c-1.5,0-3.1-2.2-3.1-4.3c0-0.3-0.3-0.6-0.6-0.6c-0.3,0-0.6,0.3-0.6,0.6
		c0,2.5,1.9,5.4,4.2,5.4c0.3,0,0.6-0.3,0.6-0.6C28.6,41.7,28.4,41.4,28.1,41.4L28.1,41.4z M41.3,26.4c-1.7,0.1-3.1-1-3.2-2.5
		c-0.1-0.6,0.1-1.3,0.5-1.8c0,0,0,0,0,0c0.7-1,1.4-2,1.7-2.9c0.3-0.8,0.5-1.7,0.5-2.6c1.2,1.1,3.1,3.3,3.3,6.3
		C44.2,25,42.8,26.3,41.3,26.4L41.3,26.4z M41.3,26.4"/>
</g>
</svg>
