<?xml version="1.0" encoding="utf-8"?>
<!-- Generator: Adobe Illustrator 19.0.0, SVG Export Plug-In . SVG Version: 6.00 Build 0)  -->
<svg version="1.1" id="图层_1" xmlns="http://www.w3.org/2000/svg" xmlns:xlink="http://www.w3.org/1999/xlink" x="0px" y="0px"
	 viewBox="0 0 64 64" style="enable-background:new 0 0 64 64;" xml:space="preserve">
<style type="text/css">
	.st0{fill:none;stroke:#888888;stroke-miterlimit:10;}
	.st1{fill:none;stroke:#888888;stroke-width:1.5;stroke-miterlimit:10;}
</style>
<circle id="XMLID_280_" class="st0" cx="32" cy="32" r="31"/>
<g id="XMLID_130_">
	<g id="XMLID_277_">
		<circle id="XMLID_279_" class="st0" cx="14.7" cy="35.6" r="2.9"/>
		<path id="XMLID_278_" class="st0" d="M11.2,40.2c0.9-0.8,2.2-1.3,3.6-1.3c1.4,0,2.7,0.5,3.6,1.3"/>
	</g>
	<g id="XMLID_274_">
		<circle id="XMLID_276_" class="st0" cx="49.2" cy="35.6" r="2.9"/>
		<path id="XMLID_275_" class="st0" d="M45.7,40.2c0.9-0.8,2.2-1.3,3.6-1.3c1.4,0,2.7,0.5,3.6,1.3"/>
	</g>
	<g id="XMLID_271_">
		<circle id="XMLID_273_" class="st0" cx="32" cy="16.3" r="2.9"/>
		<path id="XMLID_272_" class="st0" d="M28.4,20.9c0.9-0.8,2.2-1.3,3.6-1.3c1.4,0,2.7,0.5,3.6,1.3"/>
	</g>
	<path id="XMLID_268_" class="st1" d="M14.7,30.5c1-6.3,5.3-11.5,11.1-13.7"/>
	<path id="XMLID_257_" class="st1" d="M46.2,43.4c-3.2,4.4-8.3,7.2-14.1,7.2c-5.8,0-11-2.8-14.1-7.2"/>
	<path id="XMLID_131_" class="st1" d="M38.3,16.8c5.7,2.2,10,7.4,10.9,13.6"/>
</g>
</svg>
