<?xml version="1.0" encoding="utf-8"?>
<!-- Generator: Adobe Illustrator 19.0.0, SVG Export Plug-In . SVG Version: 6.00 Build 0)  -->
<svg version="1.1" id="图层_1" xmlns="http://www.w3.org/2000/svg" xmlns:xlink="http://www.w3.org/1999/xlink" x="0px" y="0px"
	 viewBox="0 0 64 64" style="enable-background:new 0 0 64 64;" xml:space="preserve">
<style type="text/css">
	.st0{fill:none;stroke:#888888;stroke-miterlimit:10;}
	.st1{fill:none;stroke:#888888;stroke-width:2;stroke-miterlimit:10;}
	.st2{fill:#888888;}
</style>
<circle id="XMLID_252_" class="st0" cx="32" cy="32" r="31"/>
<g id="XMLID_127_">
	<path id="XMLID_249_" class="st1" d="M30,20.8c2.8,3.2,3.5,7.6,2.2,8.7c-1.3,1.1-5.2,0.3-8-2.9S22,17.8,22,17.8S27.2,17.5,30,20.8z
		"/>
	<path id="XMLID_245_" class="st1" d="M35.5,21.9c-2.3,2.7-2.9,6.2-1.8,7.1c1.1,0.9,4.3,0.2,6.6-2.4s1.8-7.2,1.8-7.2
		S37.8,19.2,35.5,21.9z"/>
	<rect id="XMLID_214_" x="32.5" y="28.2" class="st2" width="1.3" height="15.5"/>
	<g id="XMLID_128_">
		<path id="XMLID_34_" class="st2" d="M25.7,46.2c0,0,0.1-0.2,0.4-0.6c0.1-0.2,0.3-0.4,0.5-0.6c0.2-0.2,0.5-0.5,0.8-0.7
			c0.6-0.4,1.4-0.8,2.3-1.1c0.9-0.3,1.9-0.4,2.9-0.4c0.5,0,1,0,1.5,0.1c0.5,0.1,1,0.2,1.4,0.3c0.9,0.3,1.7,0.7,2.3,1.1
			c0.6,0.4,1.1,0.9,1.3,1.2c0.3,0.3,0.4,0.6,0.4,0.6l-0.1,0.1c0,0-0.2-0.2-0.5-0.4c-0.3-0.3-0.8-0.6-1.4-0.9c-1.3-0.6-3.1-1.1-5-1.1
			c-1.9,0-3.8,0.4-5,1.1c-0.6,0.3-1.1,0.7-1.4,0.9C25.9,46.1,25.7,46.3,25.7,46.2L25.7,46.2z"/>
	</g>
</g>
</svg>
